<?xml version="1.0" encoding="UTF-8"?>
<!-- Generated by Pixelmator Pro 4.0 -->
<svg width="800" height="800" viewBox="0 0 800 800" xmlns="http://www.w3.org/2000/svg">
    <path id="Path" fill="#cc7c5e" fill-rule="evenodd" stroke="none" d="M 391.670013 213.545349 C 342.32666 213.545349 337.406677 218.75 311.869995 218.75 C 290.589691 218.75 226.748337 166.666687 194.828339 166.666687 C 162.908005 166.666687 125.667999 185.416687 125.667999 239.583313 L 125.667999 302.083344 C 125.732338 318.489685 131.693665 368.779999 155.025009 355.339996 C 127.441002 387.940002 124.654335 425.953339 125.033333 462.753326 C 117.604004 464.899994 110.024002 467.320007 102.667664 469.833344 C 79.871338 477.630005 55.695 487.570007 44.773331 494.623352 C 33.174698 502.113342 29.844633 517.590027 37.335331 529.186646 C 44.826 540.786682 60.301003 544.116638 71.899338 536.626709 C 77.106667 533.263306 95.941002 524.976685 118.844002 517.146606 C 121.374664 516.280029 123.910332 515.436646 126.432663 514.619995 C 127.975006 529.080017 131.802673 542.280029 137.492676 554.306641 L 136.706665 554.719971 C 123.049332 561.936707 110.376671 570.223389 102.296333 575.506653 C 100.898003 576.420044 99.637337 577.243347 98.533005 577.956665 C 86.934334 585.446655 83.60434 600.92334 91.095001 612.52002 C 98.58567 624.119995 114.060661 627.449951 125.659332 619.960022 C 127.029999 619.073364 128.490677 618.119995 130.032333 617.113281 C 138.209991 611.776672 148.666336 604.950012 160.06633 598.926636 C 162.739334 597.513306 165.311676 596.233276 167.772339 595.079956 C 225.449005 649.160034 328.997009 666.666687 391.670013 666.666687 C 454.340027 666.666687 557.890015 649.160034 615.56665 595.079956 C 618.026672 596.233276 620.59668 597.513306 623.269958 598.926636 C 634.669983 604.950012 645.126648 611.776672 653.303345 617.113281 C 654.846619 618.119995 656.306641 619.073364 657.676697 619.960022 C 669.276672 627.449951 684.75 624.119995 692.243347 612.52002 C 699.733337 600.92334 696.40332 585.446655 684.803345 577.956665 C 683.700012 577.243347 682.440002 576.420044 681.039978 575.506653 C 672.960022 570.223389 660.286621 561.936707 646.629944 554.719971 L 645.84668 554.306641 C 651.536682 542.276611 655.363342 529.080017 656.906616 514.616699 C 659.43335 515.43335 661.973328 516.276672 664.506653 517.146606 C 687.409973 524.976685 706.246704 533.263306 711.453308 536.626709 C 723.049988 544.116638 738.526672 540.786682 746.016724 529.186646 C 753.506653 517.590027 750.176697 502.113342 738.580017 494.623352 C 727.656677 487.570007 703.480042 477.630005 680.68335 469.833344 C 673.323303 467.31665 665.73999 464.899994 658.306702 462.75 C 658.68335 425.949982 655.896667 387.940002 628.313293 355.339996 C 651.646667 368.779999 657.606689 318.489685 657.67334 302.083344 L 657.67334 239.586975 C 657.67334 185.420349 620.429993 166.670349 588.51001 166.670349 C 556.590027 166.670349 492.75 218.75 471.470001 218.75 C 445.93335 218.75 441.016663 213.545349 391.670013 213.545349 Z M 369.149994 520.013306 C 375.90332 517.713318 383.873322 516.666626 391.670013 516.666626 C 399.466675 516.666626 407.436646 517.713318 414.190002 520.013306 C 417.503326 521.140015 421.556671 522.920044 425.123352 525.793335 C 428.706665 528.676636 433.33667 534.02002 433.33667 541.666626 C 433.33667 549.313354 428.706665 554.656677 425.123352 557.540039 C 421.556671 560.41333 417.503326 562.193359 414.190002 563.319946 C 407.436646 565.619995 399.466675 566.666687 391.670013 566.666687 C 383.873322 566.666687 375.90332 565.619995 369.149994 563.319946 C 365.836639 562.193359 361.783356 560.41333 358.213318 557.540039 C 354.630005 554.656677 350.003326 549.313354 350.003326 541.666626 C 350.003326 534.02002 354.630005 528.676636 358.213318 525.793335 C 361.783356 522.920044 365.836639 521.140015 369.149994 520.013306 Z M 464.003326 416.683319 C 468.553314 409.070007 477.533356 400 491.003326 400 C 504.473328 400 513.453308 409.070007 518 416.683319 C 522.743347 424.623322 525.003357 434.246674 525.003357 443.75 C 525.003357 453.253326 522.743347 462.876678 518 470.816681 C 513.453308 478.429993 504.473328 487.5 491.003326 487.5 C 477.533356 487.5 468.553314 478.429993 464.003326 470.816681 C 459.259979 462.876678 457.003326 453.253326 457.003326 443.75 C 457.003326 434.246674 459.259979 424.623322 464.003326 416.683319 Z M 265.338654 416.683319 C 269.885986 409.070007 278.866333 400 292.33667 400 C 305.806976 400 314.787323 409.070007 319.334656 416.683319 C 324.078003 424.623322 326.336975 434.246674 326.336975 443.75 C 326.336975 453.253326 324.078003 462.876678 319.334656 470.816681 C 314.787323 478.429993 305.806976 487.5 292.33667 487.5 C 278.866333 487.5 269.885986 478.429993 265.338654 470.816681 C 260.595337 462.876678 258.336334 453.253326 258.336334 443.75 C 258.336334 434.246674 260.595337 424.623322 265.338654 416.683319 Z"/>
</svg>
